<mxfile host="app.diagrams.net" modified="2024-05-29T09:24:54.487Z" agent="Mozilla/5.0 (Windows NT 10.0; Win64; x64) AppleWebKit/537.36 (KHTML, like Gecko) Chrome/125.0.0.0 Safari/537.36 Edg/125.0.0.0" etag="EJEB-i4RnpWLURfCYl3Z" version="24.4.9" type="google">
  <diagram name="Page-1" id="2YBvvXClWsGukQMizWep">
    <mxGraphModel grid="1" page="1" gridSize="15" guides="1" tooltips="1" connect="1" arrows="1" fold="1" pageScale="1" pageWidth="850" pageHeight="1100" math="0" shadow="0">
      <root>
        <mxCell id="0" />
        <mxCell id="1" parent="0" />
        <mxCell id="toimclslDOgjbDnMPCtJ-9" value="User" style="shape=umlActor;verticalLabelPosition=bottom;verticalAlign=top;html=1;outlineConnect=0;fontSize=16;" vertex="1" parent="1">
          <mxGeometry x="120" y="20" width="30" height="60" as="geometry" />
        </mxCell>
        <mxCell id="toimclslDOgjbDnMPCtJ-10" value="User" style="shape=umlActor;verticalLabelPosition=bottom;verticalAlign=top;html=1;outlineConnect=0;fontSize=16;" vertex="1" parent="1">
          <mxGeometry x="120" y="1485" width="30" height="60" as="geometry" />
        </mxCell>
        <mxCell id="toimclslDOgjbDnMPCtJ-12" value="Facebook" style="shape=umlActor;verticalLabelPosition=bottom;verticalAlign=top;html=1;outlineConnect=0;fontSize=16;" vertex="1" parent="1">
          <mxGeometry x="460" y="20" width="30" height="60" as="geometry" />
        </mxCell>
        <mxCell id="toimclslDOgjbDnMPCtJ-16" value="Facebook" style="shape=umlActor;verticalLabelPosition=bottom;verticalAlign=top;html=1;outlineConnect=0;fontSize=16;" vertex="1" parent="1">
          <mxGeometry x="460" y="1485" width="30" height="60" as="geometry" />
        </mxCell>
        <mxCell id="toimclslDOgjbDnMPCtJ-22" value="" style="endArrow=none;dashed=1;html=1;rounded=0;exitX=0.5;exitY=0;exitDx=0;exitDy=0;exitPerimeter=0;fontSize=16;" edge="1" parent="1" source="toimclslDOgjbDnMPCtJ-82" target="toimclslDOgjbDnMPCtJ-12">
          <mxGeometry width="50" height="50" relative="1" as="geometry">
            <mxPoint x="580" y="340" as="sourcePoint" />
            <mxPoint x="630" y="290" as="targetPoint" />
          </mxGeometry>
        </mxCell>
        <mxCell id="toimclslDOgjbDnMPCtJ-23" value="" style="endArrow=none;dashed=1;html=1;rounded=0;fontSize=16;" edge="1" parent="1" target="toimclslDOgjbDnMPCtJ-10">
          <mxGeometry width="50" height="50" relative="1" as="geometry">
            <mxPoint x="134.96000000000004" y="220" as="sourcePoint" />
            <mxPoint x="630" y="290" as="targetPoint" />
          </mxGeometry>
        </mxCell>
        <mxCell id="toimclslDOgjbDnMPCtJ-29" value="Email Service" style="shape=umlActor;verticalLabelPosition=bottom;verticalAlign=top;html=1;outlineConnect=0;fontSize=16;" vertex="1" parent="1">
          <mxGeometry x="870" y="20" width="30" height="60" as="geometry" />
        </mxCell>
        <mxCell id="toimclslDOgjbDnMPCtJ-30" value="Email Service" style="shape=umlActor;verticalLabelPosition=bottom;verticalAlign=top;html=1;outlineConnect=0;fontSize=16;" vertex="1" parent="1">
          <mxGeometry x="870" y="1485" width="30" height="60" as="geometry" />
        </mxCell>
        <mxCell id="toimclslDOgjbDnMPCtJ-31" value="SMS Service&lt;div style=&quot;font-size: 16px;&quot;&gt;&lt;br style=&quot;font-size: 16px;&quot;&gt;&lt;/div&gt;" style="shape=umlActor;verticalLabelPosition=bottom;verticalAlign=top;html=1;outlineConnect=0;fontSize=16;" vertex="1" parent="1">
          <mxGeometry x="1110" y="20" width="30" height="60" as="geometry" />
        </mxCell>
        <mxCell id="toimclslDOgjbDnMPCtJ-32" value="SMS Service&lt;div style=&quot;font-size: 16px;&quot;&gt;&lt;br style=&quot;font-size: 16px;&quot;&gt;&lt;/div&gt;" style="shape=umlActor;verticalLabelPosition=bottom;verticalAlign=top;html=1;outlineConnect=0;fontSize=16;" vertex="1" parent="1">
          <mxGeometry x="1110" y="1485" width="30" height="60" as="geometry" />
        </mxCell>
        <mxCell id="toimclslDOgjbDnMPCtJ-34" value="" style="endArrow=none;dashed=1;html=1;rounded=0;exitX=0.48;exitY=0.434;exitDx=0;exitDy=0;exitPerimeter=0;fontSize=16;" edge="1" parent="1" source="toimclslDOgjbDnMPCtJ-149">
          <mxGeometry width="50" height="50" relative="1" as="geometry">
            <mxPoint x="695" y="580" as="sourcePoint" />
            <mxPoint x="695" y="80.00000000000011" as="targetPoint" />
          </mxGeometry>
        </mxCell>
        <mxCell id="toimclslDOgjbDnMPCtJ-35" value="" style="endArrow=none;dashed=1;html=1;rounded=0;exitX=0.5;exitY=0.5;exitDx=0;exitDy=0;exitPerimeter=0;fontSize=16;" edge="1" parent="1" source="toimclslDOgjbDnMPCtJ-30" target="toimclslDOgjbDnMPCtJ-29">
          <mxGeometry width="50" height="50" relative="1" as="geometry">
            <mxPoint x="660" y="280" as="sourcePoint" />
            <mxPoint x="710" y="230" as="targetPoint" />
          </mxGeometry>
        </mxCell>
        <mxCell id="toimclslDOgjbDnMPCtJ-36" value="" style="endArrow=none;dashed=1;html=1;rounded=0;fontSize=16;" edge="1" parent="1" source="toimclslDOgjbDnMPCtJ-32" target="toimclslDOgjbDnMPCtJ-31">
          <mxGeometry width="50" height="50" relative="1" as="geometry">
            <mxPoint x="660" y="280" as="sourcePoint" />
            <mxPoint x="710" y="230" as="targetPoint" />
          </mxGeometry>
        </mxCell>
        <mxCell id="toimclslDOgjbDnMPCtJ-39" value="Database" style="shape=cylinder3;whiteSpace=wrap;html=1;boundedLbl=1;backgroundOutline=1;size=15;fontSize=16;" vertex="1" parent="1">
          <mxGeometry x="665" y="20" width="60" height="60" as="geometry" />
        </mxCell>
        <mxCell id="toimclslDOgjbDnMPCtJ-40" value="Database" style="shape=cylinder3;whiteSpace=wrap;html=1;boundedLbl=1;backgroundOutline=1;size=15;fontSize=16;" vertex="1" parent="1">
          <mxGeometry x="665" y="1500" width="60" height="60" as="geometry" />
        </mxCell>
        <mxCell id="toimclslDOgjbDnMPCtJ-46" value="&lt;font style=&quot;font-size: 16px;&quot;&gt;Open Sign Up Page&lt;/font&gt;" style="text;html=1;align=center;verticalAlign=middle;resizable=0;points=[];autosize=1;strokeColor=none;fillColor=none;fontSize=16;" vertex="1" parent="1">
          <mxGeometry x="153" y="110" width="180" height="30" as="geometry" />
        </mxCell>
        <mxCell id="toimclslDOgjbDnMPCtJ-48" value="&lt;font style=&quot;font-size: 16px;&quot;&gt;Return Sign Up Form&lt;/font&gt;" style="text;html=1;align=center;verticalAlign=middle;resizable=0;points=[];autosize=1;strokeColor=none;fillColor=none;fontSize=16;" vertex="1" parent="1">
          <mxGeometry x="181" y="180" width="180" height="30" as="geometry" />
        </mxCell>
        <mxCell id="toimclslDOgjbDnMPCtJ-49" value="" style="endArrow=classic;html=1;rounded=0;fontSize=16;" edge="1" parent="1">
          <mxGeometry width="50" height="50" relative="1" as="geometry">
            <mxPoint x="135" y="253.75" as="sourcePoint" />
            <mxPoint x="480" y="253.75" as="targetPoint" />
          </mxGeometry>
        </mxCell>
        <mxCell id="toimclslDOgjbDnMPCtJ-50" value="Fill Sign Up Form" style="text;html=1;align=center;verticalAlign=middle;resizable=0;points=[];autosize=1;strokeColor=none;fillColor=none;fontSize=16;" vertex="1" parent="1">
          <mxGeometry x="130" y="225" width="150" height="30" as="geometry" />
        </mxCell>
        <mxCell id="toimclslDOgjbDnMPCtJ-52" value="&lt;font style=&quot;font-size: 16px;&quot;&gt;alt&lt;/font&gt;" style="shape=umlFrame;whiteSpace=wrap;html=1;pointerEvents=0;recursiveResize=0;container=1;collapsible=0;width=160;fontSize=16;" vertex="1" parent="1">
          <mxGeometry x="90" y="285" width="1275" height="930" as="geometry" />
        </mxCell>
        <mxCell id="toimclslDOgjbDnMPCtJ-55" value="&lt;font style=&quot;font-size: 16px;&quot;&gt;&lt;b style=&quot;font-size: 16px;&quot;&gt;[Sign up with email]&lt;/b&gt;&lt;/font&gt;" style="text;html=1;align=center;verticalAlign=middle;resizable=0;points=[];autosize=1;strokeColor=none;fillColor=none;fontSize=16;" vertex="1" parent="toimclslDOgjbDnMPCtJ-52">
          <mxGeometry x="154" width="180" height="30" as="geometry" />
        </mxCell>
        <mxCell id="toimclslDOgjbDnMPCtJ-57" value="" style="endArrow=classic;html=1;rounded=0;fontSize=16;" edge="1" parent="toimclslDOgjbDnMPCtJ-52">
          <mxGeometry width="50" height="50" relative="1" as="geometry">
            <mxPoint x="390" y="45" as="sourcePoint" />
            <mxPoint x="600" y="45" as="targetPoint" />
          </mxGeometry>
        </mxCell>
        <mxCell id="toimclslDOgjbDnMPCtJ-58" value="Check if Email exists" style="text;html=1;align=center;verticalAlign=middle;resizable=0;points=[];autosize=1;strokeColor=none;fillColor=none;fontSize=16;" vertex="1" parent="toimclslDOgjbDnMPCtJ-52">
          <mxGeometry x="378" y="13" width="180" height="30" as="geometry" />
        </mxCell>
        <mxCell id="toimclslDOgjbDnMPCtJ-98" value="Sign Up Successful, Check Email" style="html=1;verticalAlign=bottom;endArrow=block;curved=0;rounded=0;fontSize=16;" edge="1" parent="toimclslDOgjbDnMPCtJ-52">
          <mxGeometry width="80" relative="1" as="geometry">
            <mxPoint x="390" y="300" as="sourcePoint" />
            <mxPoint x="45" y="300" as="targetPoint" />
          </mxGeometry>
        </mxCell>
        <mxCell id="toimclslDOgjbDnMPCtJ-108" value="&lt;b style=&quot;font-size: 16px;&quot;&gt;[Sign up with Phone Number]&lt;/b&gt;" style="text;html=1;align=center;verticalAlign=middle;resizable=0;points=[];autosize=1;strokeColor=none;fillColor=none;fontSize=16;" vertex="1" parent="toimclslDOgjbDnMPCtJ-52">
          <mxGeometry x="17" y="420" width="255" height="30" as="geometry" />
        </mxCell>
        <mxCell id="toimclslDOgjbDnMPCtJ-110" value="Check if Phone Number exists" style="text;html=1;align=center;verticalAlign=middle;resizable=0;points=[];autosize=1;strokeColor=none;fillColor=none;fontSize=16;" vertex="1" parent="toimclslDOgjbDnMPCtJ-52">
          <mxGeometry x="363" y="420" width="240" height="30" as="geometry" />
        </mxCell>
        <mxCell id="toimclslDOgjbDnMPCtJ-111" value="alt" style="shape=umlFrame;whiteSpace=wrap;html=1;pointerEvents=0;recursiveResize=0;container=1;collapsible=0;width=160;fontSize=16;" vertex="1" parent="toimclslDOgjbDnMPCtJ-52">
          <mxGeometry x="15" y="480" width="1125" height="405" as="geometry" />
        </mxCell>
        <mxCell id="toimclslDOgjbDnMPCtJ-112" value="&lt;b style=&quot;font-size: 16px;&quot;&gt;[Phone number not found]&lt;/b&gt;" style="text;html=1;align=center;verticalAlign=middle;resizable=0;points=[];autosize=1;strokeColor=none;fillColor=none;fontSize=16;" vertex="1" parent="toimclslDOgjbDnMPCtJ-111">
          <mxGeometry x="129" width="225" height="30" as="geometry" />
        </mxCell>
        <mxCell id="toimclslDOgjbDnMPCtJ-125" value="" style="html=1;points=[[0,0,0,0,5],[0,1,0,0,-5],[1,0,0,0,5],[1,1,0,0,-5]];perimeter=orthogonalPerimeter;outlineConnect=0;targetShapes=umlLifeline;portConstraint=eastwest;newEdgeStyle={&quot;curved&quot;:0,&quot;rounded&quot;:0};fontSize=16;" vertex="1" parent="toimclslDOgjbDnMPCtJ-111">
          <mxGeometry x="581" y="45" width="10" height="80" as="geometry" />
        </mxCell>
        <mxCell id="toimclslDOgjbDnMPCtJ-126" value="" style="html=1;points=[[0,0,0,0,5],[0,1,0,0,-5],[1,0,0,0,5],[1,1,0,0,-5]];perimeter=orthogonalPerimeter;outlineConnect=0;targetShapes=umlLifeline;portConstraint=eastwest;newEdgeStyle={&quot;curved&quot;:0,&quot;rounded&quot;:0};fontSize=16;" vertex="1" parent="toimclslDOgjbDnMPCtJ-111">
          <mxGeometry x="365" y="45" width="10" height="80" as="geometry" />
        </mxCell>
        <mxCell id="toimclslDOgjbDnMPCtJ-127" value="Insert New User Data with Phone Number" style="html=1;verticalAlign=bottom;endArrow=block;curved=0;rounded=0;entryX=0;entryY=0;entryDx=0;entryDy=5;fontSize=16;" edge="1" parent="toimclslDOgjbDnMPCtJ-111" target="toimclslDOgjbDnMPCtJ-125">
          <mxGeometry relative="1" as="geometry">
            <mxPoint x="371" y="50" as="sourcePoint" />
          </mxGeometry>
        </mxCell>
        <mxCell id="toimclslDOgjbDnMPCtJ-128" value="Data Inserted" style="html=1;verticalAlign=bottom;endArrow=open;dashed=1;endSize=8;curved=0;rounded=0;exitX=0;exitY=1;exitDx=0;exitDy=-5;fontSize=16;" edge="1" parent="toimclslDOgjbDnMPCtJ-111" source="toimclslDOgjbDnMPCtJ-125">
          <mxGeometry x="0.1048" relative="1" as="geometry">
            <mxPoint x="371" y="120" as="targetPoint" />
            <mxPoint as="offset" />
          </mxGeometry>
        </mxCell>
        <mxCell id="toimclslDOgjbDnMPCtJ-133" value="" style="html=1;points=[[0,0,0,0,5],[0,1,0,0,-5],[1,0,0,0,5],[1,1,0,0,-5]];perimeter=orthogonalPerimeter;outlineConnect=0;targetShapes=umlLifeline;portConstraint=eastwest;newEdgeStyle={&quot;curved&quot;:0,&quot;rounded&quot;:0};fontSize=16;" vertex="1" parent="toimclslDOgjbDnMPCtJ-111">
          <mxGeometry x="1005" y="165" width="15" height="80" as="geometry" />
        </mxCell>
        <mxCell id="toimclslDOgjbDnMPCtJ-134" value="" style="html=1;points=[[0,0,0,0,5],[0,1,0,0,-5],[1,0,0,0,5],[1,1,0,0,-5]];perimeter=orthogonalPerimeter;outlineConnect=0;targetShapes=umlLifeline;portConstraint=eastwest;newEdgeStyle={&quot;curved&quot;:0,&quot;rounded&quot;:0};fontSize=16;" vertex="1" parent="toimclslDOgjbDnMPCtJ-111">
          <mxGeometry x="365" y="165" width="10" height="80" as="geometry" />
        </mxCell>
        <mxCell id="toimclslDOgjbDnMPCtJ-135" value="Send Verification Code" style="html=1;verticalAlign=bottom;endArrow=block;curved=0;rounded=0;entryX=0;entryY=0;entryDx=0;entryDy=5;fontSize=16;" edge="1" parent="toimclslDOgjbDnMPCtJ-111" source="toimclslDOgjbDnMPCtJ-134" target="toimclslDOgjbDnMPCtJ-133">
          <mxGeometry relative="1" as="geometry">
            <mxPoint x="701" y="155" as="sourcePoint" />
          </mxGeometry>
        </mxCell>
        <mxCell id="toimclslDOgjbDnMPCtJ-136" value="Verification Code Sent" style="html=1;verticalAlign=bottom;endArrow=open;dashed=1;endSize=8;curved=0;rounded=0;exitX=0;exitY=1;exitDx=0;exitDy=-5;fontSize=16;" edge="1" parent="toimclslDOgjbDnMPCtJ-111" source="toimclslDOgjbDnMPCtJ-133" target="toimclslDOgjbDnMPCtJ-134">
          <mxGeometry x="-0.0005" relative="1" as="geometry">
            <mxPoint x="701" y="225" as="targetPoint" />
            <mxPoint as="offset" />
          </mxGeometry>
        </mxCell>
        <mxCell id="toimclslDOgjbDnMPCtJ-138" value="Sign Up Successful, Check SMS" style="text;html=1;align=center;verticalAlign=middle;resizable=0;points=[];autosize=1;strokeColor=none;fillColor=none;fontSize=16;" vertex="1" parent="toimclslDOgjbDnMPCtJ-111">
          <mxGeometry x="47" y="255" width="270" height="30" as="geometry" />
        </mxCell>
        <mxCell id="toimclslDOgjbDnMPCtJ-140" value="&lt;b style=&quot;font-size: 16px;&quot;&gt;[Phone Number Exists]&lt;/b&gt;" style="text;html=1;align=center;verticalAlign=middle;resizable=0;points=[];autosize=1;strokeColor=none;fillColor=none;fontSize=16;" vertex="1" parent="toimclslDOgjbDnMPCtJ-111">
          <mxGeometry x="-6" y="313" width="210" height="30" as="geometry" />
        </mxCell>
        <mxCell id="toimclslDOgjbDnMPCtJ-141" value="" style="endArrow=classic;html=1;rounded=0;fontSize=16;" edge="1" parent="toimclslDOgjbDnMPCtJ-111">
          <mxGeometry width="50" height="50" relative="1" as="geometry">
            <mxPoint x="375" y="373" as="sourcePoint" />
            <mxPoint x="30" y="373" as="targetPoint" />
          </mxGeometry>
        </mxCell>
        <mxCell id="toimclslDOgjbDnMPCtJ-143" value="Phone Number Already Registered" style="text;html=1;align=center;verticalAlign=middle;resizable=0;points=[];autosize=1;strokeColor=none;fillColor=none;fontSize=16;" vertex="1" parent="toimclslDOgjbDnMPCtJ-111">
          <mxGeometry x="54" y="343" width="285" height="30" as="geometry" />
        </mxCell>
        <mxCell id="toimclslDOgjbDnMPCtJ-139" value="" style="endArrow=none;html=1;rounded=0;exitX=0;exitY=0.771;exitDx=0;exitDy=0;exitPerimeter=0;fontSize=16;" edge="1" parent="toimclslDOgjbDnMPCtJ-52" source="toimclslDOgjbDnMPCtJ-111">
          <mxGeometry width="50" height="50" relative="1" as="geometry">
            <mxPoint x="525" y="770" as="sourcePoint" />
            <mxPoint x="1142" y="790" as="targetPoint" />
          </mxGeometry>
        </mxCell>
        <mxCell id="toimclslDOgjbDnMPCtJ-59" value="alt&amp;nbsp;" style="shape=umlFrame;whiteSpace=wrap;html=1;pointerEvents=0;recursiveResize=0;container=1;collapsible=0;width=160;fontSize=16;" vertex="1" parent="1">
          <mxGeometry x="105" y="345" width="1125" height="345" as="geometry" />
        </mxCell>
        <mxCell id="toimclslDOgjbDnMPCtJ-88" value="" style="html=1;points=[[0,0,0,0,5],[0,1,0,0,-5],[1,0,0,0,5],[1,1,0,0,-5]];perimeter=orthogonalPerimeter;outlineConnect=0;targetShapes=umlLifeline;portConstraint=eastwest;newEdgeStyle={&quot;curved&quot;:0,&quot;rounded&quot;:0};fontSize=16;" vertex="1" parent="toimclslDOgjbDnMPCtJ-59">
          <mxGeometry x="585" y="28" width="10" height="80" as="geometry" />
        </mxCell>
        <mxCell id="toimclslDOgjbDnMPCtJ-92" value="" style="html=1;points=[[0,0,0,0,5],[0,1,0,0,-5],[1,0,0,0,5],[1,1,0,0,-5]];perimeter=orthogonalPerimeter;outlineConnect=0;targetShapes=umlLifeline;portConstraint=eastwest;newEdgeStyle={&quot;curved&quot;:0,&quot;rounded&quot;:0};fontSize=16;" vertex="1" parent="toimclslDOgjbDnMPCtJ-59">
          <mxGeometry x="369" y="28" width="10" height="80" as="geometry" />
        </mxCell>
        <mxCell id="toimclslDOgjbDnMPCtJ-93" value="" style="html=1;points=[[0,0,0,0,5],[0,1,0,0,-5],[1,0,0,0,5],[1,1,0,0,-5]];perimeter=orthogonalPerimeter;outlineConnect=0;targetShapes=umlLifeline;portConstraint=eastwest;newEdgeStyle={&quot;curved&quot;:0,&quot;rounded&quot;:0};fontSize=16;" vertex="1" parent="toimclslDOgjbDnMPCtJ-59">
          <mxGeometry x="775" y="135" width="10" height="80" as="geometry" />
        </mxCell>
        <mxCell id="toimclslDOgjbDnMPCtJ-96" value="" style="html=1;points=[[0,0,0,0,5],[0,1,0,0,-5],[1,0,0,0,5],[1,1,0,0,-5]];perimeter=orthogonalPerimeter;outlineConnect=0;targetShapes=umlLifeline;portConstraint=eastwest;newEdgeStyle={&quot;curved&quot;:0,&quot;rounded&quot;:0};fontSize=16;" vertex="1" parent="toimclslDOgjbDnMPCtJ-59">
          <mxGeometry x="369" y="135" width="10" height="80" as="geometry" />
        </mxCell>
        <mxCell id="toimclslDOgjbDnMPCtJ-94" value="Send Verification Email" style="html=1;verticalAlign=bottom;endArrow=block;curved=0;rounded=0;entryX=0;entryY=0;entryDx=0;entryDy=5;fontSize=16;" edge="1" parent="toimclslDOgjbDnMPCtJ-59" source="toimclslDOgjbDnMPCtJ-96" target="toimclslDOgjbDnMPCtJ-93">
          <mxGeometry relative="1" as="geometry">
            <mxPoint x="705" y="125" as="sourcePoint" />
          </mxGeometry>
        </mxCell>
        <mxCell id="toimclslDOgjbDnMPCtJ-95" value="Verification Email Sent" style="html=1;verticalAlign=bottom;endArrow=open;dashed=1;endSize=8;curved=0;rounded=0;exitX=0;exitY=1;exitDx=0;exitDy=-5;fontSize=16;" edge="1" parent="toimclslDOgjbDnMPCtJ-59" source="toimclslDOgjbDnMPCtJ-93" target="toimclslDOgjbDnMPCtJ-96">
          <mxGeometry x="-0.0005" relative="1" as="geometry">
            <mxPoint x="705" y="195" as="targetPoint" />
            <mxPoint as="offset" />
          </mxGeometry>
        </mxCell>
        <mxCell id="toimclslDOgjbDnMPCtJ-101" value="&lt;b style=&quot;font-size: 16px;&quot;&gt;[Email Exists]&lt;/b&gt;" style="text;html=1;align=center;verticalAlign=middle;resizable=0;points=[];autosize=1;strokeColor=none;fillColor=none;fontSize=16;" vertex="1" parent="toimclslDOgjbDnMPCtJ-59">
          <mxGeometry x="9" y="268" width="135" height="30" as="geometry" />
        </mxCell>
        <mxCell id="toimclslDOgjbDnMPCtJ-103" value="Email Already Registered" style="text;html=1;align=center;verticalAlign=middle;resizable=0;points=[];autosize=1;strokeColor=none;fillColor=none;fontSize=16;" vertex="1" parent="toimclslDOgjbDnMPCtJ-59">
          <mxGeometry x="99" y="285" width="210" height="30" as="geometry" />
        </mxCell>
        <mxCell id="toimclslDOgjbDnMPCtJ-106" value="" style="endArrow=none;html=1;rounded=0;entryX=0.999;entryY=0.764;entryDx=0;entryDy=0;entryPerimeter=0;fontSize=16;" edge="1" parent="toimclslDOgjbDnMPCtJ-59">
          <mxGeometry width="50" height="50" relative="1" as="geometry">
            <mxPoint y="270.88" as="sourcePoint" />
            <mxPoint x="1123.875" y="267.9999999999999" as="targetPoint" />
            <Array as="points">
              <mxPoint x="450" y="270.88" />
            </Array>
          </mxGeometry>
        </mxCell>
        <mxCell id="toimclslDOgjbDnMPCtJ-60" value="&lt;b style=&quot;font-size: 16px;&quot;&gt;[Email not found]&lt;/b&gt;" style="text;html=1;align=center;verticalAlign=middle;resizable=0;points=[];autosize=1;strokeColor=none;fillColor=none;fontSize=16;" vertex="1" parent="toimclslDOgjbDnMPCtJ-59">
          <mxGeometry x="144" y="-2" width="165" height="30" as="geometry" />
        </mxCell>
        <mxCell id="toimclslDOgjbDnMPCtJ-81" value="" style="endArrow=none;dashed=1;html=1;rounded=0;fontSize=16;" edge="1" parent="1" source="toimclslDOgjbDnMPCtJ-9">
          <mxGeometry width="50" height="50" relative="1" as="geometry">
            <mxPoint x="135" y="80" as="sourcePoint" />
            <mxPoint x="135" y="140.0000000000001" as="targetPoint" />
          </mxGeometry>
        </mxCell>
        <mxCell id="toimclslDOgjbDnMPCtJ-83" value="" style="html=1;verticalAlign=bottom;endArrow=block;curved=0;rounded=0;entryX=0;entryY=0;entryDx=0;entryDy=5;fontSize=16;" edge="1" parent="1" target="toimclslDOgjbDnMPCtJ-82">
          <mxGeometry relative="1" as="geometry">
            <mxPoint x="135" y="135" as="sourcePoint" />
            <mxPoint as="offset" />
          </mxGeometry>
        </mxCell>
        <mxCell id="toimclslDOgjbDnMPCtJ-84" value="" style="html=1;verticalAlign=bottom;endArrow=open;dashed=1;endSize=8;curved=0;rounded=0;exitX=0;exitY=1;exitDx=0;exitDy=-5;fontSize=16;" edge="1" parent="1" source="toimclslDOgjbDnMPCtJ-82">
          <mxGeometry relative="1" as="geometry">
            <mxPoint x="135" y="205" as="targetPoint" />
          </mxGeometry>
        </mxCell>
        <mxCell id="toimclslDOgjbDnMPCtJ-85" value="" style="endArrow=none;dashed=1;html=1;rounded=0;exitX=0.5;exitY=0;exitDx=0;exitDy=0;exitPerimeter=0;fontSize=16;" edge="1" parent="1" source="toimclslDOgjbDnMPCtJ-96" target="toimclslDOgjbDnMPCtJ-82">
          <mxGeometry width="50" height="50" relative="1" as="geometry">
            <mxPoint x="475" y="900" as="sourcePoint" />
            <mxPoint x="475" y="80" as="targetPoint" />
          </mxGeometry>
        </mxCell>
        <mxCell id="toimclslDOgjbDnMPCtJ-82" value="" style="html=1;points=[[0,0,0,0,5],[0,1,0,0,-5],[1,0,0,0,5],[1,1,0,0,-5]];perimeter=orthogonalPerimeter;outlineConnect=0;targetShapes=umlLifeline;portConstraint=eastwest;newEdgeStyle={&quot;curved&quot;:0,&quot;rounded&quot;:0};fontSize=16;" vertex="1" parent="1">
          <mxGeometry x="470" y="130" width="10" height="80" as="geometry" />
        </mxCell>
        <mxCell id="toimclslDOgjbDnMPCtJ-87" value="" style="html=1;points=[[0,0,0,0,5],[0,1,0,0,-5],[1,0,0,0,5],[1,1,0,0,-5]];perimeter=orthogonalPerimeter;outlineConnect=0;targetShapes=umlLifeline;portConstraint=eastwest;newEdgeStyle={&quot;curved&quot;:0,&quot;rounded&quot;:0};fontSize=16;" vertex="1" parent="1">
          <mxGeometry x="129" y="130" width="10" height="80" as="geometry" />
        </mxCell>
        <mxCell id="toimclslDOgjbDnMPCtJ-89" value="Insert New User Data with Email" style="html=1;verticalAlign=bottom;endArrow=block;curved=0;rounded=0;entryX=0;entryY=0;entryDx=0;entryDy=5;fontSize=16;" edge="1" parent="1" target="toimclslDOgjbDnMPCtJ-88">
          <mxGeometry relative="1" as="geometry">
            <mxPoint x="480" y="378" as="sourcePoint" />
          </mxGeometry>
        </mxCell>
        <mxCell id="toimclslDOgjbDnMPCtJ-90" value="Data Inserted" style="html=1;verticalAlign=bottom;endArrow=open;dashed=1;endSize=8;curved=0;rounded=0;exitX=0;exitY=1;exitDx=0;exitDy=-5;fontSize=16;" edge="1" parent="1" source="toimclslDOgjbDnMPCtJ-88">
          <mxGeometry y="-13" relative="1" as="geometry">
            <mxPoint x="480" y="448" as="targetPoint" />
            <mxPoint as="offset" />
          </mxGeometry>
        </mxCell>
        <mxCell id="toimclslDOgjbDnMPCtJ-97" value="" style="endArrow=none;dashed=1;html=1;rounded=0;exitX=0.5;exitY=0;exitDx=0;exitDy=0;exitPerimeter=0;fontSize=16;" edge="1" parent="1" source="toimclslDOgjbDnMPCtJ-153" target="toimclslDOgjbDnMPCtJ-96">
          <mxGeometry width="50" height="50" relative="1" as="geometry">
            <mxPoint x="475" y="900" as="sourcePoint" />
            <mxPoint x="475" y="210" as="targetPoint" />
          </mxGeometry>
        </mxCell>
        <mxCell id="toimclslDOgjbDnMPCtJ-102" value="" style="endArrow=classic;html=1;rounded=0;fontSize=16;" edge="1" parent="1">
          <mxGeometry width="50" height="50" relative="1" as="geometry">
            <mxPoint x="480" y="660" as="sourcePoint" />
            <mxPoint x="135" y="660" as="targetPoint" />
          </mxGeometry>
        </mxCell>
        <mxCell id="toimclslDOgjbDnMPCtJ-109" value="" style="endArrow=classic;html=1;rounded=0;fontSize=16;" edge="1" parent="1">
          <mxGeometry width="50" height="50" relative="1" as="geometry">
            <mxPoint x="480" y="735" as="sourcePoint" />
            <mxPoint x="690" y="735" as="targetPoint" />
          </mxGeometry>
        </mxCell>
        <mxCell id="toimclslDOgjbDnMPCtJ-137" value="" style="endArrow=classic;html=1;rounded=0;fontSize=16;" edge="1" parent="1">
          <mxGeometry width="50" height="50" relative="1" as="geometry">
            <mxPoint x="480" y="1050" as="sourcePoint" />
            <mxPoint x="135" y="1050" as="targetPoint" />
          </mxGeometry>
        </mxCell>
        <mxCell id="toimclslDOgjbDnMPCtJ-144" value="" style="endArrow=classic;html=1;rounded=0;fontSize=16;" edge="1" parent="1">
          <mxGeometry width="50" height="50" relative="1" as="geometry">
            <mxPoint x="135" y="1260" as="sourcePoint" />
            <mxPoint x="480" y="1260" as="targetPoint" />
          </mxGeometry>
        </mxCell>
        <mxCell id="toimclslDOgjbDnMPCtJ-145" value="Verify Email or Phone" style="text;html=1;align=center;verticalAlign=middle;resizable=0;points=[];autosize=1;strokeColor=none;fillColor=none;fontSize=16;" vertex="1" parent="1">
          <mxGeometry x="139" y="1228" width="180" height="30" as="geometry" />
        </mxCell>
        <mxCell id="toimclslDOgjbDnMPCtJ-146" value="" style="endArrow=classic;html=1;rounded=0;fontSize=16;" edge="1" parent="1">
          <mxGeometry width="50" height="50" relative="1" as="geometry">
            <mxPoint x="480" y="1305" as="sourcePoint" />
            <mxPoint x="690" y="1305" as="targetPoint" />
          </mxGeometry>
        </mxCell>
        <mxCell id="toimclslDOgjbDnMPCtJ-147" value="Update Verifcation Status" style="text;html=1;align=center;verticalAlign=middle;resizable=0;points=[];autosize=1;strokeColor=none;fillColor=none;fontSize=16;" vertex="1" parent="1">
          <mxGeometry x="479" y="1273" width="210" height="30" as="geometry" />
        </mxCell>
        <mxCell id="toimclslDOgjbDnMPCtJ-151" value="Verification Status Updated" style="html=1;verticalAlign=bottom;endArrow=open;dashed=1;endSize=8;curved=0;rounded=0;exitX=0;exitY=1;exitDx=0;exitDy=-5;fontSize=16;" edge="1" parent="1" source="toimclslDOgjbDnMPCtJ-149">
          <mxGeometry relative="1" as="geometry">
            <mxPoint x="480" y="1380" as="targetPoint" />
          </mxGeometry>
        </mxCell>
        <mxCell id="toimclslDOgjbDnMPCtJ-152" value="" style="endArrow=none;dashed=1;html=1;rounded=0;exitX=0.48;exitY=0.434;exitDx=0;exitDy=0;exitPerimeter=0;fontSize=16;" edge="1" parent="1" source="toimclslDOgjbDnMPCtJ-40" target="toimclslDOgjbDnMPCtJ-149">
          <mxGeometry width="50" height="50" relative="1" as="geometry">
            <mxPoint x="694" y="1526" as="sourcePoint" />
            <mxPoint x="695" y="80.00000000000011" as="targetPoint" />
          </mxGeometry>
        </mxCell>
        <mxCell id="toimclslDOgjbDnMPCtJ-149" value="" style="html=1;points=[[0,0,0,0,5],[0,1,0,0,-5],[1,0,0,0,5],[1,1,0,0,-5]];perimeter=orthogonalPerimeter;outlineConnect=0;targetShapes=umlLifeline;portConstraint=eastwest;newEdgeStyle={&quot;curved&quot;:0,&quot;rounded&quot;:0};fontSize=16;" vertex="1" parent="1">
          <mxGeometry x="686" y="1303" width="10" height="80" as="geometry" />
        </mxCell>
        <mxCell id="toimclslDOgjbDnMPCtJ-154" value="" style="endArrow=none;dashed=1;html=1;rounded=0;exitX=0.5;exitY=0;exitDx=0;exitDy=0;exitPerimeter=0;fontSize=16;" edge="1" parent="1" source="toimclslDOgjbDnMPCtJ-16" target="toimclslDOgjbDnMPCtJ-153">
          <mxGeometry width="50" height="50" relative="1" as="geometry">
            <mxPoint x="475" y="1485" as="sourcePoint" />
            <mxPoint x="475" y="560" as="targetPoint" />
          </mxGeometry>
        </mxCell>
        <mxCell id="toimclslDOgjbDnMPCtJ-153" value="" style="html=1;points=[[0,0,0,0,5],[0,1,0,0,-5],[1,0,0,0,5],[1,1,0,0,-5]];perimeter=orthogonalPerimeter;outlineConnect=0;targetShapes=umlLifeline;portConstraint=eastwest;newEdgeStyle={&quot;curved&quot;:0,&quot;rounded&quot;:0};fontSize=16;" vertex="1" parent="1">
          <mxGeometry x="470" y="1303" width="10" height="80" as="geometry" />
        </mxCell>
        <mxCell id="toimclslDOgjbDnMPCtJ-155" value="Account Verified" style="html=1;verticalAlign=bottom;endArrow=block;curved=0;rounded=0;fontSize=16;" edge="1" parent="1">
          <mxGeometry width="80" relative="1" as="geometry">
            <mxPoint x="480" y="1440" as="sourcePoint" />
            <mxPoint x="135" y="1440" as="targetPoint" />
          </mxGeometry>
        </mxCell>
      </root>
    </mxGraphModel>
  </diagram>
</mxfile>
